<?xml version="1.0" encoding="utf-8"?>
<!-- Generator: Adobe Illustrator 23.0.1, SVG Export Plug-In . SVG Version: 6.00 Build 0)  -->
<svg version="1.1" id="Layer_1" xmlns="http://www.w3.org/2000/svg" xmlns:xlink="http://www.w3.org/1999/xlink" x="0px" y="0px"
	 viewBox="0 0 841.89 595.28" style="enable-background:new 0 0 841.89 595.28;" xml:space="preserve">
<style type="text/css">
	.st0{fill:#6C6AB1;}
	.st1{fill:#52B5E7;}
</style>
<path class="st0" d="M132.25,298.03c1.56-31.12,15.49-54.74,43.17-69.68c9.62-5.19,20.24-8.05,31.13-8.5
	c17.09-0.7,33.12,3.44,47.54,12.96c3.45,2.28,4.48,5.8,2.66,9.77c-2.98,6.52-7.14,12.32-11.73,17.76
	c-15.2,18.01-33.96,31.42-54.87,42.01c-15.09,7.64-30.85,13.31-47.45,16.51c-5.21,1-7.72-0.83-9-5.96
	C132.5,308.06,132.27,303.12,132.25,298.03z"/>
<path d="M419.72,298.47c0-18.98,0.06-37.96-0.06-56.93c-0.02-3.13,0.94-4.11,4.06-4.07c12.68,0.14,25.37-0.1,38.06,0.12
	c7.93,0.14,15.87,0.79,23.38,3.78c13.76,5.48,20.52,15.93,21.46,30.44c1,15.47-5.37,26.98-18.96,34.34
	c-2.52,1.37-2.58,2.48-1.34,4.76c8.08,14.85,16.05,29.77,24.06,44.66c1.8,3.35,1.52,3.94-2.19,3.97
	c-5.36,0.04-10.73-0.08-16.09,0.06c-2.38,0.06-3.72-0.78-4.82-2.93c-7.01-13.67-14.19-27.26-21.2-40.92
	c-1.12-2.19-2.42-3.22-4.99-3.13c-5.36,0.19-10.73,0.18-16.09,0.01c-2.77-0.09-3.54,0.98-3.52,3.62
	c0.09,12.99,0.05,25.99,0.04,38.99c0,4.29-0.04,4.32-4.31,4.33c-4.54,0.01-9.08-0.12-13.61,0.05c-2.92,0.11-3.95-0.87-3.93-3.89
	C419.77,336.63,419.72,317.55,419.72,298.47z M441.51,275.1c0.01,0,0.03,0,0.04,0c0,5.56,0.07,11.13-0.03,16.69
	c-0.04,2.32,0.66,3.37,3.16,3.33c6.69-0.12,13.39-0.03,20.09-0.07c10.84-0.07,21.12-7.14,20.11-21.33
	c-0.74-10.37-6.77-17.01-17.09-18.12c-7.61-0.82-15.24-0.18-22.85-0.5c-2.82-0.12-3.54,1.04-3.48,3.63
	C441.61,264.18,441.51,269.64,441.51,275.1z"/>
<path d="M567.64,331.5c9.2-28.32,18.24-56.17,27.29-84.01c0.76-2.35,1.67-4.67,2.3-7.06c0.57-2.16,1.75-2.98,3.98-2.94
	c5.77,0.11,11.55,0.13,17.33-0.01c2.87-0.07,3,1.02,2.16,3.34c-6.45,17.73-12.83,35.49-19.23,53.25
	c-7.51,20.86-15.03,41.71-22.48,62.58c-0.74,2.07-1.83,2.98-4.04,2.93c-4.74-0.1-9.49-0.12-14.23,0.01
	c-2.43,0.07-3.66-0.79-4.5-3.16c-9.1-25.54-18.31-51.04-27.49-76.55c-4.57-12.71-9.17-25.41-13.7-38.14
	c-1.46-4.08-1.31-4.23,2.86-4.24c5.36-0.01,10.73,0.13,16.09-0.03c2.52-0.07,3.6,0.91,4.35,3.27c9.51,29.86,19.12,59.7,28.7,89.54
	C567.1,330.57,567.28,330.82,567.64,331.5z"/>
<path d="M366.69,307.4c0,15.99,0,31.98,0,47.96c0,4.06-0.11,4.17-4.14,4.19c-4.54,0.02-9.09-0.17-13.61,0.06
	c-3.2,0.16-4.03-1.07-4.02-4.12c0.09-29.91,0.05-59.82,0.05-89.74c0-2.48-0.1-4.96,0.02-7.43c0.12-2.4-0.79-3.26-3.23-3.24
	c-10.11,0.1-20.22-0.06-30.32,0.1c-3.03,0.05-4.01-1-3.84-3.93c0.2-3.39,0.18-6.81,0.01-10.21c-0.14-2.73,0.92-3.59,3.59-3.57
	c15.06,0.09,30.12,0.04,45.18,0.04c14.75,0,29.5,0.07,44.25-0.05c2.98-0.02,4.06,0.95,3.88,3.92c-0.2,3.39-0.16,6.81-0.01,10.21
	c0.12,2.68-0.86,3.62-3.57,3.59c-10.21-0.12-20.42,0.05-30.63-0.11c-2.94-0.05-3.67,1-3.65,3.75
	C366.74,275.02,366.69,291.21,366.69,307.4z"/>
<path d="M634.65,298.62c0-18.98,0-37.95,0-56.93c0-4.09,0.06-4.14,4.15-4.16c4.43-0.02,8.87-0.01,13.3,0
	c4.32,0.01,4.35,0.03,4.36,4.27c0.01,20.73,0,41.46,0,62.19c0,11.04,0,22.07,0,33.11c0,4.95,0,4.96,4.81,4.96
	c15.47,0,30.94,0.06,46.41-0.05c2.93-0.02,4.1,0.85,3.93,3.86c-0.2,3.5-0.12,7.01-0.02,10.52c0.06,2.19-0.69,3.21-3,3.2
	c-23.62-0.04-47.24-0.05-70.85,0.02c-2.82,0.01-3.12-1.47-3.12-3.73C634.67,336.78,634.65,317.7,634.65,298.62z"/>
<path class="st1" d="M254.25,276.29c-0.8,3.31-1.41,6.67-2.42,9.91c-5.25,16.83-13.8,31.83-24.73,45.65
	c-7.89,9.98-16.69,19.05-25.78,27.88c-3.54,3.44-7.36,6.6-11.2,9.71c-3.2,2.59-6.58,3.05-10.62,1.19
	c-13.51-6.23-24.61-15.24-33.24-27.35c-2.18-3.06-1.73-4.85,1.93-5.89c7.53-2.13,15.08-4.23,22.4-6.97
	c13.91-5.21,27.19-11.68,39.69-19.8c11.53-7.49,22.33-15.84,31.89-25.74c2.93-3.03,5.6-6.32,8.41-9.47c0.71-0.8,1.58-1.41,2.72-0.94
	C254.09,274.77,254.23,275.48,254.25,276.29z"/>
<path class="st0" d="M289.84,297.09c-0.86,25.64-10.56,46-29.38,62.02c-11.13,9.47-24.01,15.06-38.33,17.51
	c-1.72,0.29-3.49,0.33-5.23,0.4c-1.13,0.04-2.36,0.08-2.91-1.23c-0.53-1.28,0.27-2.16,1.06-3c3.31-3.54,6.74-6.97,9.93-10.61
	c16.57-18.93,30.05-39.77,38.91-63.44c4.8-12.82,7.83-26.03,9.19-39.63c0.07-0.72,0.17-1.43,0.31-2.14c0.21-1.05,0.6-2.02,1.84-2.2
	c1.11-0.16,1.69,0.61,2.18,1.43c5.54,9.29,9.67,19.13,11.21,29.91C289.18,290.06,289.51,294.07,289.84,297.09z"/>
</svg>
