<?xml version="1.0" encoding="utf-8"?>
<!-- Generator: Adobe Illustrator 23.0.1, SVG Export Plug-In . SVG Version: 6.00 Build 0)  -->
<svg version="1.1" id="Layer_1" xmlns="http://www.w3.org/2000/svg" xmlns:xlink="http://www.w3.org/1999/xlink" x="0px" y="0px"
	 viewBox="0 0 841.89 595.28" style="enable-background:new 0 0 841.89 595.28;" xml:space="preserve">
<path d="M329.76,298.48c0-18.98,0.06-37.96-0.06-56.93c-0.02-3.13,0.94-4.11,4.06-4.07c12.68,0.14,25.37-0.1,38.06,0.12
	c7.93,0.14,15.87,0.79,23.38,3.78c13.76,5.48,20.52,15.93,21.46,30.44c1,15.47-5.37,26.98-18.96,34.34
	c-2.52,1.37-2.58,2.48-1.34,4.76c8.08,14.85,16.05,29.77,24.06,44.66c1.8,3.35,1.52,3.94-2.19,3.97
	c-5.36,0.04-10.73-0.08-16.09,0.06c-2.38,0.06-3.72-0.78-4.82-2.93c-7.01-13.67-14.19-27.26-21.2-40.92
	c-1.12-2.19-2.42-3.22-4.99-3.13c-5.36,0.19-10.73,0.18-16.09,0.01c-2.77-0.09-3.54,0.98-3.52,3.62
	c0.09,12.99,0.05,25.99,0.04,38.99c0,4.29-0.04,4.32-4.31,4.33c-4.54,0.01-9.08-0.12-13.61,0.05c-2.92,0.11-3.95-0.87-3.93-3.89
	C329.82,336.64,329.76,317.56,329.76,298.48z M351.56,275.1c0.01,0,0.03,0,0.04,0c0,5.56,0.07,11.13-0.03,16.69
	c-0.04,2.32,0.66,3.37,3.16,3.33c6.69-0.12,13.39-0.03,20.09-0.07c10.84-0.07,21.12-7.14,20.11-21.33
	c-0.74-10.37-6.77-17.01-17.09-18.12c-7.61-0.82-15.24-0.18-22.85-0.5c-2.82-0.12-3.54,1.04-3.48,3.63
	C351.66,264.18,351.56,269.64,351.56,275.1z"/>
<path d="M477.68,331.51c9.2-28.32,18.24-56.17,27.29-84.01c0.76-2.35,1.67-4.67,2.3-7.06c0.57-2.16,1.75-2.98,3.98-2.94
	c5.77,0.11,11.55,0.13,17.33-0.01c2.87-0.07,3,1.02,2.16,3.34c-6.45,17.73-12.83,35.49-19.23,53.25
	c-7.51,20.86-15.03,41.71-22.48,62.58c-0.74,2.07-1.83,2.98-4.04,2.93c-4.74-0.1-9.49-0.12-14.23,0.01
	c-2.43,0.07-3.66-0.79-4.5-3.16c-9.1-25.54-18.31-51.04-27.49-76.55c-4.57-12.71-9.17-25.41-13.7-38.14
	c-1.46-4.08-1.31-4.23,2.86-4.24c5.36-0.01,10.73,0.13,16.09-0.03c2.52-0.07,3.6,0.91,4.35,3.27c9.51,29.86,19.12,59.7,28.7,89.54
	C477.15,330.57,477.33,330.83,477.68,331.51z"/>
<path d="M276.73,307.41c0,15.99,0,31.98,0,47.96c0,4.06-0.11,4.17-4.14,4.19c-4.54,0.02-9.09-0.17-13.61,0.06
	c-3.2,0.16-4.03-1.07-4.02-4.12c0.09-29.91,0.05-59.82,0.05-89.74c0-2.48-0.1-4.96,0.02-7.43c0.12-2.4-0.79-3.26-3.23-3.24
	c-10.11,0.1-20.22-0.06-30.32,0.1c-3.03,0.05-4.01-1-3.84-3.93c0.2-3.39,0.18-6.81,0.01-10.21c-0.14-2.73,0.92-3.59,3.59-3.57
	c15.06,0.09,30.12,0.04,45.18,0.04c14.75,0,29.5,0.07,44.25-0.05c2.98-0.02,4.06,0.95,3.88,3.92c-0.2,3.39-0.16,6.81-0.01,10.21
	c0.12,2.68-0.86,3.62-3.57,3.59c-10.21-0.12-20.42,0.05-30.63-0.11c-2.94-0.05-3.67,1-3.65,3.75
	C276.78,275.02,276.73,291.21,276.73,307.41z"/>
<path d="M544.69,298.62c0-18.98,0-37.95,0-56.93c0-4.09,0.06-4.14,4.15-4.16c4.43-0.02,8.87-0.01,13.3,0
	c4.32,0.01,4.35,0.03,4.36,4.27c0.01,20.73,0,41.46,0,62.19c0,11.04,0,22.07,0,33.11c0,4.95,0,4.96,4.81,4.96
	c15.47,0,30.94,0.06,46.41-0.05c2.93-0.02,4.1,0.85,3.93,3.86c-0.2,3.5-0.12,7.01-0.02,10.52c0.06,2.19-0.69,3.21-3,3.2
	c-23.62-0.04-47.24-0.05-70.85,0.02c-2.82,0.01-3.12-1.47-3.12-3.73C544.71,336.78,544.69,317.7,544.69,298.62z"/>
</svg>
