<?xml version="1.0" encoding="utf-8"?>
<!-- Generator: Adobe Illustrator 23.0.1, SVG Export Plug-In . SVG Version: 6.00 Build 0)  -->
<svg version="1.1" id="Layer_1" xmlns="http://www.w3.org/2000/svg" xmlns:xlink="http://www.w3.org/1999/xlink" x="0px" y="0px"
	 viewBox="0 0 841.89 595.28" style="enable-background:new 0 0 841.89 595.28;" xml:space="preserve">
<style type="text/css">
	.st0{fill:#6C6AB1;}
	.st1{fill:#52B5E7;}
</style>
<path class="st0" d="M291.61,297.79c2.59-51.51,25.65-90.62,71.46-115.35c15.92-8.59,33.51-13.33,51.54-14.06
	c28.3-1.16,54.83,5.69,78.7,21.46c5.71,3.77,7.41,9.6,4.41,16.17c-4.93,10.79-11.82,20.4-19.42,29.4
	c-25.16,29.81-56.22,52.01-90.84,69.55c-24.97,12.65-51.06,22.04-78.56,27.33c-8.62,1.66-12.78-1.37-14.89-9.87
	C292.03,314.39,291.64,306.22,291.61,297.79z"/>
<path class="st1" d="M493.56,261.8c-1.32,5.47-2.34,11.04-4.01,16.4c-8.69,27.86-22.85,52.69-40.94,75.57
	c-13.06,16.52-27.63,31.54-42.67,46.15c-5.86,5.69-12.19,10.93-18.55,16.07c-5.3,4.28-10.89,5.05-17.58,1.96
	c-22.37-10.31-40.74-25.23-55.02-45.28c-3.6-5.06-2.86-8.04,3.2-9.75c12.46-3.53,24.96-7,37.09-11.54
	c23.03-8.63,45.02-19.34,65.7-32.78c19.09-12.4,36.97-26.22,52.79-42.61c4.85-5.02,9.27-10.46,13.92-15.68
	c1.18-1.32,2.61-2.33,4.5-1.56C493.3,259.28,493.53,260.45,493.56,261.8z"/>
<path class="st0" d="M552.48,296.23c-1.42,42.44-17.49,76.15-48.63,102.66c-18.42,15.68-39.75,24.94-63.45,28.98
	c-2.84,0.49-5.77,0.55-8.66,0.66c-1.86,0.07-3.91,0.13-4.82-2.04c-0.89-2.11,0.45-3.57,1.75-4.96c5.48-5.85,11.16-11.54,16.43-17.57
	c27.42-31.34,49.74-65.83,64.41-105.02c7.94-21.22,12.96-43.08,15.22-65.61c0.12-1.19,0.27-2.37,0.51-3.54
	c0.35-1.74,0.99-3.35,3.04-3.65c1.84-0.27,2.8,1.01,3.6,2.36c9.17,15.39,16.01,31.66,18.56,49.51
	C551.39,284.59,551.93,291.23,552.48,296.23z"/>
</svg>
